<svg width="250" height="250" viewBox="0 0 250 250" fill="none" xmlns="http://www.w3.org/2000/svg">
<g filter="url(#filter0_d_1001_7)">
<path d="M226.203 125L231.239 119.844C240.254 110.611 240.254 95.5904 231.239 86.3594L185.086 39.1022C180.613 34.5223 174.64 32 168.267 32.0012C161.895 32.0024 155.922 34.5247 151.451 39.1046L146.886 43.7795L142.319 39.1034C137.847 34.5235 131.874 32 125.502 32C119.129 32 113.156 34.5223 108.684 39.1022L104.113 43.7831L99.5362 39.0986C95.063 34.5211 89.0921 32 82.7199 32C82.7186 32 82.7174 32 82.7174 32C76.3451 32.0012 70.3718 34.5235 65.9011 39.1034L19.7608 86.3582C10.7468 95.5904 10.748 110.611 19.762 119.841L24.7999 124.999L19.762 130.158C10.7468 139.389 10.7456 154.408 19.7608 163.642L65.8998 210.895C70.3731 215.477 76.3451 218 82.7174 218C82.7186 218 82.7186 218 82.7199 218C89.0909 218 95.063 215.479 99.535 210.9L104.111 206.216L108.683 210.898C113.156 215.478 119.128 218 125.5 218C131.873 218 137.846 215.478 142.318 210.898L146.884 206.222L151.45 210.897C155.922 215.477 161.894 217.999 168.267 217.999C174.638 217.999 180.613 215.478 185.085 210.898L231.237 163.642C240.253 154.41 240.253 139.389 231.237 130.156L226.203 125ZM108.683 184.239L104.113 188.917L41.6948 125L72.9031 93.042L104.111 61.0839L108.682 65.7624C109.317 66.4138 109.991 67.0117 110.686 67.5787C111.822 68.5058 113.022 69.3296 114.289 70.0214C114.293 70.0237 114.296 70.0249 114.299 70.0261C115.657 70.7666 117.082 71.3681 118.557 71.8234C118.576 71.8293 118.595 71.8317 118.614 71.8376C120.076 72.2845 121.586 72.5912 123.129 72.7446C123.524 72.7838 123.927 72.7838 124.326 72.804C124.716 72.823 125.103 72.8622 125.495 72.8622C125.497 72.8622 125.498 72.8622 125.498 72.8622C127.091 72.8622 128.659 72.7041 130.185 72.3963C134.762 71.4715 138.961 69.1941 142.315 65.76L146.535 61.4381L146.883 61.0815L209.306 125.001L146.886 188.922L142.315 184.242C137.843 179.662 131.871 177.14 125.499 177.14C125.498 177.14 125.498 177.14 125.497 177.14C119.127 177.139 113.155 179.66 108.683 184.239ZM160.369 47.2706C162.499 45.0894 165.305 43.8877 168.268 43.8877C171.232 43.8877 174.037 45.0882 176.168 47.2694L222.32 94.5254C226.938 99.2538 226.938 106.948 222.32 111.676L217.756 116.35L155.334 52.4293L160.369 47.2706ZM117.602 47.2694C119.733 45.0882 122.538 43.8865 125.502 43.8865C128.465 43.8865 131.27 45.0882 133.401 47.2682L138.439 52.4281L133.397 57.5916C132.067 58.955 130.472 59.9357 128.74 60.4789C127.7 60.8046 126.611 60.9745 125.5 60.9745C122.537 60.9745 119.732 59.774 117.602 57.594L112.562 52.4329L117.602 47.2694ZM28.6815 111.674C24.0634 106.946 24.0634 99.2527 28.6802 94.5242L74.8205 47.2694C76.9503 45.0882 79.7553 43.8865 82.7186 43.8865C85.682 43.8865 88.4869 45.087 90.6168 47.2682L95.6645 52.4353L64.4562 84.3921L33.248 116.349L28.6815 111.674ZM82.7199 206.114C79.7553 206.114 76.9503 204.912 74.8193 202.729L28.6802 155.476C24.0622 150.746 24.0622 143.053 28.6802 138.325L33.2455 133.65L95.6632 197.566L90.6155 202.733C88.4882 204.913 85.6832 206.114 82.7199 206.114ZM125.502 206.114C122.538 206.114 119.733 204.912 117.602 202.731L112.561 197.566L117.601 192.405C119.73 190.225 122.536 189.024 125.499 189.024C128.462 189.024 131.267 190.226 133.398 192.407L138.44 197.571L133.401 202.731C131.27 204.912 128.465 206.114 125.502 206.114ZM222.319 155.475L176.167 202.731C174.037 204.912 171.231 206.112 168.267 206.112C165.304 206.112 162.499 204.911 160.369 202.731L155.332 197.571L217.755 133.65L222.319 138.324C226.937 143.052 226.937 150.747 222.319 155.475Z" fill="url(#paint0_linear_1001_7)"/>
</g>
<defs>
<filter id="filter0_d_1001_7" x="9" y="32" width="233" height="194" filterUnits="userSpaceOnUse" color-interpolation-filters="sRGB">
<feFlood flood-opacity="0" result="BackgroundImageFix"/>
<feColorMatrix in="SourceAlpha" type="matrix" values="0 0 0 0 0 0 0 0 0 0 0 0 0 0 0 0 0 0 127 0" result="hardAlpha"/>
<feOffset dy="4"/>
<feGaussianBlur stdDeviation="2"/>
<feComposite in2="hardAlpha" operator="out"/>
<feColorMatrix type="matrix" values="0 0 0 0 0 0 0 0 0 0 0 0 0 0 0 0 0 0 0.25 0"/>
<feBlend mode="normal" in2="BackgroundImageFix" result="effect1_dropShadow_1001_7"/>
<feBlend mode="normal" in="SourceGraphic" in2="effect1_dropShadow_1001_7" result="shape"/>
</filter>
<linearGradient id="paint0_linear_1001_7" x1="13.0006" y1="125" x2="238" y2="125" gradientUnits="userSpaceOnUse">
<stop stop-color="#4B0082"/>
<stop offset="1" stop-color="#B34044"/>
</linearGradient>
</defs>
</svg>
